<svg width="308" height="148" fill="none" xmlns="http://www.w3.org/2000/svg"><path d="M302.622 3.55c11.426 0 11.426 141.742-300.002 141.742" stroke="#CBC9D9" stroke-width="3" stroke-dasharray="6 9"/><mask id="a" fill="#fff"><ellipse cx="2.62" cy="145.292" rx="2.62" ry="2.708"/></mask><ellipse cx="2.62" cy="145.292" rx="2.62" ry="2.708" fill="#fff"/><path d="M2.24 145.292c0-.048.021-.114.077-.171A.43.43 0 0 1 2.62 145v6c3.197 0 5.62-2.65 5.62-5.708h-6Zm.38-.292a.43.43 0 0 1 .304.121.256.256 0 0 1 .076.171h-6C-3 148.35-.577 151 2.62 151v-6Zm.38.292a.256.256 0 0 1-.076.17.43.43 0 0 1-.304.121v-6c-3.197 0-5.62 2.65-5.62 5.709h6Zm-.38.291a.43.43 0 0 1-.303-.121.256.256 0 0 1-.077-.17h6c0-3.059-2.423-5.709-5.62-5.709v6Z" fill="#CBC9D9" mask="url(#a)"/><mask id="b" fill="#fff"><ellipse cx="302.621" cy="3.549" rx="2.62" ry="2.708"/></mask><ellipse cx="302.621" cy="3.549" rx="2.62" ry="2.708" fill="#fff"/><path d="M302.242 3.549c0-.048.021-.114.076-.17a.432.432 0 0 1 .304-.122v6c3.196 0 5.62-2.65 5.62-5.708h-6Zm.38-.292c.137 0 .246.063.303.121a.256.256 0 0 1 .076.171h-6c0 3.058 2.424 5.708 5.621 5.708v-6Zm.379.292a.256.256 0 0 1-.076.17.431.431 0 0 1-.303.122v-6c-3.197 0-5.621 2.65-5.621 5.708h6Zm-.379.292a.432.432 0 0 1-.304-.121.256.256 0 0 1-.076-.171h6c0-3.058-2.424-5.708-5.62-5.708v6Z" fill="#CBC9D9" mask="url(#b)"/></svg>