<svg width="186" height="152" fill="none" xmlns="http://www.w3.org/2000/svg"><path d="M0 .7h18.748v18.821H0V.701Z" fill="#FAE54E"/><path fill-rule="evenodd" clip-rule="evenodd" d="M7.67 4.978h14.487a3.842 3.842 0 0 1 3.835 3.85V23.37a3.842 3.842 0 0 1-3.835 3.85H7.67a3.842 3.842 0 0 1-3.835-3.85V8.827a3.842 3.842 0 0 1 3.835-3.85Zm0 3.422a.427.427 0 0 0-.426.427v14.544c0 .236.19.428.426.428h14.487a.427.427 0 0 0 .426-.428V8.827a.427.427 0 0 0-.426-.427H7.67Z" fill="#130B43"/><path d="M17.35 102.382c0 .928-.75 1.681-1.675 1.681A1.678 1.678 0 0 1 14 102.382c0-.929.75-1.681 1.675-1.681s1.675.752 1.675 1.681ZM17.35 108.434c0 .929-.75 1.681-1.675 1.681A1.677 1.677 0 0 1 14 108.434c0-.928.75-1.681 1.675-1.681s1.675.753 1.675 1.681ZM17.35 114.487c0 .928-.75 1.681-1.675 1.681A1.678 1.678 0 0 1 14 114.487c0-.929.75-1.682 1.675-1.682s1.675.753 1.675 1.682ZM23.379 102.382c0 .928-.75 1.681-1.675 1.681a1.678 1.678 0 0 1-1.675-1.681c0-.929.75-1.682 1.675-1.682s1.675.753 1.675 1.682ZM23.379 108.434c0 .929-.75 1.681-1.675 1.681a1.677 1.677 0 0 1-1.675-1.681c0-.928.75-1.681 1.675-1.681s1.675.753 1.675 1.681ZM23.379 114.487c0 .928-.75 1.681-1.675 1.681a1.678 1.678 0 0 1-1.675-1.681c0-.929.75-1.682 1.675-1.682s1.675.753 1.675 1.682ZM29.408 102.382c0 .928-.75 1.681-1.674 1.681a1.678 1.678 0 0 1-1.675-1.681c0-.929.75-1.682 1.675-1.682s1.674.753 1.674 1.682ZM29.408 108.434c0 .929-.75 1.681-1.674 1.681a1.678 1.678 0 0 1-1.675-1.681c0-.928.75-1.681 1.675-1.681s1.674.753 1.674 1.681ZM29.408 114.487c0 .928-.75 1.681-1.674 1.681a1.678 1.678 0 0 1-1.675-1.681c0-.929.75-1.682 1.675-1.682s1.674.753 1.674 1.682Z" fill="#130B43"/><path d="M171.233 128.075a.328.328 0 0 1 .305.489l-8.777 15.586a.326.326 0 0 1-.562.012l-9.025-14.498a.328.328 0 0 1 .257-.502l17.802-1.087Z" fill="#F69605"/><path fill-rule="evenodd" clip-rule="evenodd" d="M159.583 134a.329.329 0 0 0-.249.501l8.442 13.561a.325.325 0 0 0 .557-.005l9.039-15.098a.328.328 0 0 0-.309-.496L159.583 134Zm20.032.313-9.038 15.098c-1.133 1.891-3.856 1.915-5.021.043l-8.441-13.561c-1.165-1.872.05-4.318 2.24-4.51l17.48-1.537c2.396-.211 4.019 2.397 2.78 4.467Z" fill="#130B43"/></svg>