<svg width="94" height="158" fill="none" xmlns="http://www.w3.org/2000/svg"><path d="m55 41.91 13.933-13.856 13.933 13.855-13.933 13.856L55 41.909Z" fill="#59D2AE"/><path fill-rule="evenodd" clip-rule="evenodd" d="m63.867 39.39 10.766-10.707a4.046 4.046 0 0 1 5.7 0L91.1 39.39a3.992 3.992 0 0 1 0 5.668L80.333 55.765a4.046 4.046 0 0 1-5.7 0L63.867 45.058a3.992 3.992 0 0 1 0-5.668Zm2.533 2.52a.444.444 0 0 0 0 .629l10.767 10.707a.45.45 0 0 0 .633 0l10.766-10.707a.444.444 0 0 0 0-.63L77.8 31.203a.45.45 0 0 0-.633 0L66.4 41.909Z" fill="#130B43"/><path d="M5.297 135.96a1.798 1.798 0 0 1 2.534 0l9.5 9.447c.699.695.699 1.823 0 2.519-.7.696-1.834.696-2.534 0l-9.5-9.447c-.7-.696-.7-1.824 0-2.519ZM1.267 143.976a1.798 1.798 0 0 1 2.533 0l9.5 9.447c.7.696.7 1.823 0 2.519-.7.696-1.834.696-2.533 0l-9.5-9.447c-.7-.696-.7-1.823 0-2.519Z" fill="#130B43"/></svg>