<svg xmlns="http://www.w3.org/2000/svg" fill="none" viewBox="0 0 80 80"><path fill="#fff" d="M35 2.887a10 10 0 0 1 10 0l24.64 14.226a10 10 0 0 1 5 8.66v28.453a10 10 0 0 1-5 8.66L45 77.114a10 10 0 0 1-10 0L10.359 62.887a10 10 0 0 1-5-8.66V25.774a10 10 0 0 1 5-8.66l24.64-14.227z"/><path fill="#130B43" fill-rule="evenodd" d="M67.766 20.36 43.125 6.135a6.25 6.25 0 0 0-6.25 0L12.234 20.361a6.25 6.25 0 0 0-3.125 5.413v28.453a6.25 6.25 0 0 0 3.125 5.412l24.64 14.227a6.25 6.25 0 0 0 6.25 0l24.642-14.227a6.25 6.25 0 0 0 3.125-5.413V25.774a6.25 6.25 0 0 0-3.125-5.413zM45 2.888a10 10 0 0 0-10 0L10.359 17.113a10 10 0 0 0-5 8.66v28.453a10 10 0 0 0 5 8.66l24.64 14.227a10 10 0 0 0 10 0l24.642-14.226a10 10 0 0 0 5-8.66V25.774a10 10 0 0 0-5-8.66L45 2.886z" clip-rule="evenodd"/></svg>